<svg width="596" height="196" viewBox="0 0 596 196" fill="none" xmlns="http://www.w3.org/2000/svg">
<path d="M0.456 4.39999H76.744V22.064H19.912V40.496H74.056V58.032H19.912V94H0.456V4.39999ZM122.553 22.192C127.673 22.192 131.897 23.344 135.225 24.112L132.153 42.416C130.361 41.904 125.369 40.88 119.225 40.88C104.761 40.88 100.537 52.144 100.537 61.872V94H81.081V22.192H100.537V32.816H101.689C105.785 25.904 110.137 22.192 122.553 22.192ZM194.604 32.816H195.5V22.192H214.956V94H195.5V84.016H194.86C189.996 90.288 181.804 94 168.236 94C138.156 94 134.828 67.76 134.828 58.16C134.828 47.664 138.028 22.192 168.364 22.192C181.676 22.192 189.74 26.416 194.604 32.816ZM173.996 77.36C190.764 77.36 194.22 69.04 194.22 58.16C194.22 48.432 190.764 38.96 173.996 38.96C155.308 38.96 153.388 52.528 153.388 58.16C153.388 63.28 155.436 77.36 173.996 77.36ZM266.497 22.192C296.833 22.192 297.601 47.664 297.601 58.16V94H278.273V58.16C278.273 52.528 279.425 38.96 260.865 38.96C243.969 38.96 241.537 49.712 241.537 59.44V94H222.081V22.192H241.537V32.816H242.433C247.041 26.416 253.569 22.192 266.497 22.192ZM358.779 67.12H377.979C376.443 84.4 361.211 94 340.603 94C319.483 94 302.331 81.84 302.331 58.032C302.331 34.864 319.483 22.064 340.603 22.064C361.211 22.064 376.315 32.048 377.979 49.072H358.907C357.243 43.696 352.507 39.6 340.603 39.6C327.931 39.6 321.275 45.872 321.275 58.032C321.275 70.832 327.931 76.592 340.603 76.592C352.891 76.592 357.371 72.112 358.779 67.12ZM404.159 94H384.831V22.704H404.159V94ZM404.159 17.584H384.831V0.175995H404.159V17.584ZM485.991 62.64H428.647C430.055 72.24 435.815 76.976 448.359 76.976C460.007 76.976 465.767 73.776 467.559 69.04H486.375C484.455 84.528 471.911 94 448.359 94C423.783 94 409.831 81.712 409.831 57.776C409.831 34.352 424.167 21.552 448.359 21.552C458.471 21.552 466.663 24.112 472.679 28.336V28.208C486.503 37.68 487.783 52.784 486.759 62.64H485.991ZM448.359 38.576C437.607 38.576 431.719 42.544 429.415 49.84H467.303C465.767 44.464 462.183 38.576 448.359 38.576ZM512.034 94H492.706V1.96799H512.034V94ZM593.741 62.64H536.397C537.805 72.24 543.565 76.976 556.109 76.976C567.757 76.976 573.517 73.776 575.309 69.04H594.125C592.205 84.528 579.661 94 556.109 94C531.533 94 517.581 81.712 517.581 57.776C517.581 34.352 531.917 21.552 556.109 21.552C566.221 21.552 574.413 24.112 580.429 28.336V28.208C594.253 37.68 595.533 52.784 594.509 62.64H593.741ZM556.109 38.576C545.357 38.576 539.469 42.544 537.165 49.84H575.053C573.517 44.464 569.933 38.576 556.109 38.576ZM69.704 161.952H89.928C88.136 181.92 70.728 196 45.768 196C20.04 196 0.456 180.512 0.456 150.56C0.456 121.12 20.04 104.992 45.768 104.992C70.728 104.992 88.648 119.968 89.928 139.168H69.704C66.888 129.44 60.232 124.832 45.768 124.832C30.408 124.832 19.784 132.768 19.784 150.56C19.784 168.352 30.408 176.16 45.768 176.16C60.744 176.16 67.272 170.784 69.704 161.952ZM141.274 124.192C171.738 124.192 173.658 149.664 173.658 160.16V196H154.33V160.16C154.33 154.528 154.33 140.96 135.642 140.96C118.874 140.96 115.162 151.712 115.162 161.44V196H95.706V103.584H115.162V134.816H116.058C120.666 128.416 128.474 124.192 141.274 124.192ZM254.991 164.64H197.647C199.055 174.24 204.815 178.976 217.359 178.976C229.007 178.976 234.767 175.776 236.559 171.04H255.375C253.455 186.528 240.911 196 217.359 196C192.783 196 178.831 183.712 178.831 159.776C178.831 136.352 193.167 123.552 217.359 123.552C227.471 123.552 235.663 126.112 241.679 130.336V130.208C255.503 139.68 256.783 154.784 255.759 164.64H254.991ZM217.359 140.576C206.607 140.576 200.719 144.544 198.415 151.84H236.303C234.767 146.464 231.183 140.576 217.359 140.576ZM296.85 152.48C313.106 154.912 331.538 157.728 331.538 174.752C331.538 192.544 318.738 196 296.722 196C280.466 196 269.33 193.056 263.57 187.296C258.578 182.304 258.578 176.288 258.706 172.576V171.168H278.674V171.808C278.674 177.952 283.282 180.768 296.21 180.768C304.018 180.768 311.442 179.744 311.442 175.008C311.442 169.632 304.53 168.608 296.722 167.712C295.698 167.584 294.674 167.456 293.65 167.328C273.042 164.64 260.242 160.032 260.242 145.696C260.242 135.712 266.002 123.808 293.65 123.808C323.346 123.808 329.618 136.992 329.618 148V148.64H309.778V148C309.778 142.368 304.914 139.296 293.65 139.296C282.77 139.296 280.466 143.264 280.466 145.44C280.466 148.64 282.642 150.432 295.186 152.352L296.85 152.48ZM411.741 164.64H354.397C355.805 174.24 361.565 178.976 374.109 178.976C385.757 178.976 391.517 175.776 393.309 171.04H412.125C410.205 186.528 397.661 196 374.109 196C349.533 196 335.581 183.712 335.581 159.776C335.581 136.352 349.917 123.552 374.109 123.552C384.221 123.552 392.413 126.112 398.429 130.336V130.208C412.253 139.68 413.533 154.784 412.509 164.64H411.741ZM374.109 140.576C363.357 140.576 357.469 144.544 355.165 151.84H393.053C391.517 146.464 387.933 140.576 374.109 140.576ZM459.803 124.192C464.923 124.192 469.147 125.344 472.475 126.112L469.403 144.416C467.611 143.904 462.619 142.88 456.475 142.88C442.011 142.88 437.787 154.144 437.787 163.872V196H418.331V124.192H437.787V134.816H438.939C443.035 127.904 447.387 124.192 459.803 124.192ZM546.991 164.64H489.647C491.055 174.24 496.815 178.976 509.359 178.976C521.007 178.976 526.767 175.776 528.559 171.04H547.375C545.455 186.528 532.911 196 509.359 196C484.783 196 470.831 183.712 470.831 159.776C470.831 136.352 485.167 123.552 509.359 123.552C519.471 123.552 527.663 126.112 533.679 130.336V130.208C547.503 139.68 548.783 154.784 547.759 164.64H546.991ZM509.359 140.576C498.607 140.576 492.719 144.544 490.415 151.84H528.303C526.767 146.464 523.183 140.576 509.359 140.576Z" fill="#FAFAFA"/>
</svg>
