<svg width="44" height="44" viewBox="0 0 44 44" fill="none" xmlns="http://www.w3.org/2000/svg">
<path d="M40.7465 0.000307623H3.25352C2.83206 -0.00551046 2.41358 0.0712511 2.02198 0.226209C1.63037 0.381166 1.27331 0.611284 0.971181 0.903421C0.669056 1.19556 0.427786 1.54399 0.261149 1.92882C0.0945123 2.31365 0.0057731 2.72734 0 3.14626V40.8537C0.0057731 41.2727 0.0945123 41.6863 0.261149 42.0712C0.427786 42.456 0.669056 42.8044 0.971181 43.0966C1.27331 43.3887 1.63037 43.6188 2.02198 43.7738C2.41358 43.9287 2.83206 44.0055 3.25352 43.9997H40.7465C41.1679 44.0055 41.5864 43.9287 41.978 43.7738C42.3696 43.6188 42.7267 43.3887 43.0288 43.0966C43.3309 42.8044 43.5722 42.456 43.7388 42.0712C43.9055 41.6863 43.9942 41.2727 44 40.8537V3.14626C43.9942 2.72734 43.9055 2.31365 43.7388 1.92882C43.5722 1.54399 43.3309 1.19556 43.0288 0.903421C42.7267 0.611284 42.3696 0.381166 41.978 0.226209C41.5864 0.0712511 41.1679 -0.00551046 40.7465 0.000307623ZM13.3461 36.8278H6.70624V17.0281H13.3461V36.8278ZM10.0262 14.2561C9.11044 14.2561 8.23223 13.8945 7.58472 13.2509C6.93721 12.6073 6.57344 11.7344 6.57344 10.8242C6.57344 9.91395 6.93721 9.04102 7.58472 8.3974C8.23223 7.75378 9.11044 7.3922 10.0262 7.3922C10.5124 7.33739 11.0048 7.38528 11.4712 7.53275C11.9375 7.68021 12.3672 7.92391 12.7322 8.24791C13.0972 8.5719 13.3893 8.96887 13.5893 9.41284C13.7892 9.8568 13.8926 10.3377 13.8926 10.8242C13.8926 11.3106 13.7892 11.7915 13.5893 12.2355C13.3893 12.6794 13.0972 13.0764 12.7322 13.4004C12.3672 13.7244 11.9375 13.9681 11.4712 14.1156C11.0048 14.263 10.5124 14.3109 10.0262 14.2561ZM37.2938 36.8278H30.6539V26.2019C30.6539 23.54 29.7022 21.802 27.2897 21.802C26.5431 21.8074 25.8161 22.0402 25.2067 22.469C24.5972 22.8977 24.1347 23.5019 23.8813 24.2C23.7081 24.7171 23.633 25.2616 23.66 25.8059V36.8058H17.0201V17.0061H23.66V19.8C24.2631 18.7597 25.1404 17.9026 26.1974 17.3211C27.2543 16.7396 28.4508 16.4558 29.6579 16.5001C34.0845 16.5001 37.2938 19.338 37.2938 25.432V36.8278Z" fill="#8fff00"/>
</svg>
